<svg xmlns="http://www.w3.org/2000/svg" aria-hidden="true" style="position:absolute;width:0;height:0;overflow:hidden"><defs><symbol id="icon-gmail" viewBox="0 0 32 32"><path fill="#d14836" d="M32 6v20c0 1.13-.87 2-2 2h-2V9.85l-12 8.62L4 9.85V28H2c-1.14 0-2-.87-2-2V6c0-.57.22-1.07.57-1.42C.93 4.2 1.44 4 2 4h.67L16 13.67 29.33 4H30a1.98 1.98 0 0 1 2 2z" style="fill:var(--color1, #d14836)"/></symbol><symbol id="icon-instagram" viewBox="0 0 32 32"><path fill="#e4405f" d="M16 0c-4.35 0-4.89.02-6.6.1-1.7.08-2.86.34-3.88.74-1.05.4-1.95.96-2.83 1.84S1.24 4.47.83 5.53C.44 6.54.17 7.7.1 9.4.02 11.11 0 11.65 0 16s.02 4.89.1 6.6c.08 1.7.34 2.86.74 3.88.4 1.05.96 1.95 1.84 2.83a7.8 7.8 0 0 0 2.84 1.85c1.02.4 2.18.67 3.88.74 1.71.08 2.25.1 6.6.1s4.89-.02 6.6-.1c1.7-.08 2.86-.34 3.88-.74a7.87 7.87 0 0 0 2.83-1.84 7.8 7.8 0 0 0 1.85-2.84c.4-1.02.67-2.18.74-3.88.08-1.71.1-2.25.1-6.6s-.02-4.89-.1-6.6c-.08-1.7-.34-2.86-.74-3.88a7.86 7.86 0 0 0-1.84-2.83A7.79 7.79 0 0 0 26.48.83C25.46.44 24.3.17 22.6.1 20.89.02 20.35 0 16 0zm0 2.88c4.27 0 4.78.02 6.47.1 1.56.07 2.4.33 2.97.55.74.29 1.28.63 1.84 1.2.56.55.9 1.08 1.2 1.83.21.57.47 1.41.54 2.97.08 1.7.1 2.2.1 6.47s-.02 4.78-.1 6.47a9 9 0 0 1-.56 2.97 5.1 5.1 0 0 1-1.2 1.84 5 5 0 0 1-1.84 1.2 8.9 8.9 0 0 1-2.98.54c-1.7.08-2.2.1-6.48.1s-4.78-.02-6.48-.1a9.07 9.07 0 0 1-2.98-.56 4.96 4.96 0 0 1-1.84-1.2 4.87 4.87 0 0 1-1.2-1.84 9.07 9.07 0 0 1-.56-2.98c-.06-1.68-.08-2.2-.08-6.46s.02-4.78.08-6.48c.08-1.56.34-2.42.56-2.98.28-.76.64-1.28 1.2-1.84a4.72 4.72 0 0 1 1.84-1.2c.56-.22 1.4-.48 2.96-.56 1.7-.06 2.2-.08 6.48-.08zm0 4.9a8.22 8.22 0 1 0 0 16.43 8.22 8.22 0 0 0 0-16.43zm0 13.55a5.33 5.33 0 1 1 0-10.66 5.33 5.33 0 0 1 0 10.66zM26.46 7.46a1.92 1.92 0 1 1-3.84 0 1.92 1.92 0 0 1 3.84 0z" style="fill:var(--color2, #e4405f)"/></symbol><symbol id="icon-telegram" viewBox="0 0 32 32"><path  d="M31.88 5.05 27.07 27.8c-.34 1.6-1.31 2-2.67 1.25l-7.33-5.43-3.55 3.43c-.4.4-.73.75-1.47.75-.96 0-.8-.36-1.12-1.27L8.4 18.27 1.13 16c-1.57-.47-1.58-1.55.35-2.33L29.83 2.73c1.29-.57 2.53.32 2.05 2.32z" style="fill:var(--color3, #2ca5e0)"/></symbol><symbol id="icon-tiktok" viewBox="0 0 32 32"><path d="M16.7.03C18.46 0 20.2 0 21.93 0a8.3 8.3 0 0 0 2.33 5.56c1.5 1.48 3.6 2.16 5.66 2.39v5.37a14.29 14.29 0 0 1-7.76-2.53c-.02 3.89 0 7.78-.03 11.66-.1 1.87-.72 3.72-1.8 5.26a9.93 9.93 0 0 1-7.88 4.28c-1.9.1-3.81-.42-5.44-1.38a10.06 10.06 0 0 1-4.87-7.6c-.03-.68-.04-1.34-.01-2a10 10 0 0 1 3.44-6.6 9.92 9.92 0 0 1 8.2-2.3c.03 1.97-.05 3.95-.05 5.92a4.67 4.67 0 0 0-4.03.5 4.63 4.63 0 0 0-1.81 2.32c-.28.68-.2 1.43-.2 2.15.33 2.19 2.44 4.03 4.68 3.83a4.48 4.48 0 0 0 3.69-2.15c.25-.44.53-.9.55-1.41.13-2.39.08-4.76.09-7.15.01-5.37-.01-10.73.03-16.1z"/></symbol><symbol id="icon-viber" viewBox="0 0 32 32"><path fill="#665cac" d="M15.2 0C12.63.04 7.1.46 4.02 3.3 1.72 5.57.92 8.93.83 13.09.75 17.24.66 25.03 8.16 27.15v3.23s-.05 1.29.8 1.56c1.06.33 1.66-.67 2.66-1.74l1.87-2.1c5.13.42 9.06-.56 9.52-.7 1.04-.34 6.9-1.09 7.86-8.88 1-8.04-.48-13.1-3.12-15.4-.8-.73-4-3.07-11.17-3.1 0 0-.53-.03-1.38-.01zm.09 2.27c.72 0 1.17.02 1.17.02 6.05.02 8.95 1.84 9.63 2.46 2.23 1.9 3.37 6.47 2.53 13.18-.8 6.51-5.56 6.92-6.44 7.2-.37.12-3.84.98-8.2.7 0 0-3.25 3.92-4.27 4.93-.16.17-.34.23-.46.2-.18-.04-.23-.25-.22-.55l.03-5.35c-6.36-1.76-5.99-8.4-5.92-11.87.08-3.47.73-6.31 2.67-8.23 2.6-2.36 7.3-2.68 9.48-2.7zm.48 3.46a.4.4 0 0 0 0 .8h.14c2.03 0 3.88.8 5.23 2.12 1.45 1.41 2.16 3.3 2.19 5.79 0 .22.18.4.4.4v-.01a.4.4 0 0 0 .4-.4v-.37c0-2.32-.92-4.43-2.42-5.98a8.23 8.23 0 0 0-5.94-2.35zm-5.28.92a1.25 1.25 0 0 0-.82.17h-.01c-.55.31-1.05.71-1.53 1.24a2.49 2.49 0 0 0-.63 1.48c0 .18.03.36.08.52h.03c.45 1.33 1 2.48 1.64 3.55l-.04-.08c.9 1.6 1.92 3 3.1 4.24l-.01-.01.04.05.05.04.08.08a20.86 20.86 0 0 0 4.14 3.05l.1.06a19.5 19.5 0 0 0 3.47 1.6v.01c.19.06.36.08.53.08a2.45 2.45 0 0 0 1.47-.63c.52-.46.93-.98 1.24-1.53v-.01c.3-.57.2-1.12-.24-1.5a18.14 18.14 0 0 0-2.78-2l-.08-.05c-.68-.37-1.38-.15-1.66.23l-.6.76c-.3.37-.86.32-.86.32l-.02.01c-4.16-1.07-5.27-5.28-5.27-5.28s-.05-.57.34-.87l.74-.6c.36-.29.62-.98.23-1.66a18.07 18.07 0 0 0-2.07-2.89l.02.02c-.17-.2-.4-.35-.67-.4zm5.97 1.19a.4.4 0 0 0 0 .8 4.65 4.65 0 0 1 4.73 4.97v-.01c0 .22.18.4.4.4l.02.01a.4.4 0 0 0 .4-.4c.04-1.58-.46-2.92-1.43-3.98s-2.33-1.67-4.07-1.8h-.05zM17.1 10h-.01a.4.4 0 0 0-.01.81c1.32.07 1.96.73 2.04 2.1 0 .22.18.4.4.4h.01a.4.4 0 0 0 .39-.4v-.03c-.1-1.79-1.07-2.79-2.8-2.88s-.02 0-.02 0z" style="fill:var(--color4, #665cac)"/></symbol><symbol id="icon-whatsapp" viewBox="0 0 32 32"><path fill="#25d366" d="M23.33 19.18c-.4-.2-2.35-1.16-2.72-1.3-.36-.13-.63-.2-.9.2-.26.4-1.02 1.3-1.25 1.56-.24.26-.47.28-.87.1-.4-.2-1.68-.62-3.2-1.98A12.07 12.07 0 0 1 12.18 15c-.24-.4-.03-.62.17-.82.18-.18.4-.46.6-.7.2-.24.26-.4.4-.66.13-.28.06-.5-.04-.7-.1-.2-.9-2.16-1.22-2.94-.32-.78-.65-.68-.9-.68-.23-.02-.5-.02-.76-.02s-.7.1-1.06.48c-.37.4-1.4 1.36-1.4 3.3s1.43 3.82 1.63 4.1c.2.26 2.8 4.26 6.8 5.98.95.4 1.69.64 2.27.84.95.3 1.82.26 2.5.16.77-.12 2.36-.96 2.7-1.9.33-.94.33-1.72.23-1.9-.1-.18-.36-.28-.76-.46zM16.08 29h-.02c-2.36 0-4.7-.64-6.74-1.84l-.48-.28-5 1.3 1.34-4.86-.32-.5a13.16 13.16 0 0 1-2.02-7.02 13.23 13.23 0 0 1 22.62-9.3c2.5 2.48 3.88 5.8 3.88 9.32 0 7.26-5.95 13.18-13.25 13.18zM27.36 4.6A16.19 16.19 0 0 0 16.06 0 15.91 15.91 0 0 0 .13 15.86c0 2.8.74 5.52 2.13 7.92L0 32l8.45-2.2A15.92 15.92 0 0 0 32 15.87c0-4.24-1.65-8.23-4.66-11.22z" style="fill:var(--color5, #25d366)"/></symbol><symbol id="icon-youtube" viewBox="0 0 32 32"><path fill="red" d="M31.33 8.27a4.03 4.03 0 0 0-2.76-2.77l-.03-.01c-2.49-.67-12.52-.67-12.52-.67S6 4.81 3.49 5.5A4.03 4.03 0 0 0 .7 8.24v.03c-.45 2.28-.7 4.9-.7 7.59v.28c0 2.68.25 5.3.73 7.84l-.04-.26a4.03 4.03 0 0 0 2.76 2.78h.03c2.49.68 12.53.68 12.53.68s10 0 12.52-.67a4.03 4.03 0 0 0 2.78-2.76v-.03c.43-2.23.68-4.8.68-7.42V16 16v-.3c0-2.63-.25-5.2-.71-7.7l.04.26zM12.8 20.8v-9.59l8.35 4.8z" style="fill:var(--color6, #f00)"/></symbol></defs></svg>